<svg xmlns="http://www.w3.org/2000/svg" height="640" width="640" version="1.1">
	<g transform="translate(0 -412.36)">
		<g>
			<path d="m137.3 919.26q0-3 1.8-4.8t1.8-4.8l-3.6-1.2v-2.4q3-12.6 4.2-37.2 0.6-25.8 3-36.6l-1.8-12.6q-0.6-8.4 0.6-24 1.2-17.4 1.2-24.6l-1.8-25.2 1.8-32.4q0-9-1.8-13.2 1.2-3 1.8-8.4l-1.8-6 1.8-9-1.8-64.8q0-1.2-1.8-5.4l-1.8-5.4-1.8-34.8q-1.8-4.8-13.8-9.6-11.4-4.8-11.4-6t9-13.2q3.6-10.2 16.2-19.8 12.6-9 21.6-9 10.8 0 14.4 3.6 4.2 6.6 19.2 15 15 9.6 24 21l32.4 2.4q1.2-2.4 36-2.4 7.2 0 19.2-1.8t16.8-1.8q6.6 0 12.6 1.2 5.4 1.2 9 1.2l10.8-2.4q65.4 0 84-8.4 3-1.8 14.4-14.4 9-9.6 18-9.6 25.8 13.8 33.6 20.4 0 2.4 12 8.4 12 6.6 12 13.2v21.6q0 0.6-12 9.6-12.6 8.4-12.6 16.8l0.6 7.8-1.2 7.2q1.2 58.8 4.8 70.8-1.2 10.8-1.2 14.4l1.2 4.8v56.4q0.6 0.6 3.6 8.4 0 0.6-1.8 3-1.8 3-1.8 6.6 7.8 38.4 6 34.2-6 0-6 46.2 0 4.8-5.4 10.2-5.4 6-5.4 7.2t-6.6 6q-7.8 6-11.4 6-13.2 13.2-15.6 13.2-14.4-1.8-18-6.6-2.4-3-3.6-17.4-4.8-2.4-14.4-3.6t-14.4-3.6q-6 0-18.6 1.2t-18.6 1.2-20.4-1.2q-13.8-1.2-20.4-1.2l-20.4 2.4q-2.4 0.6-3-1.2l-1.8-1.2q-1.8 0-3.6 1.2-1.2 1.2-2.4 1.2-0.6 0.6-3.6-2.4-2.4 2.4-7.2 2.4-0.6 0-1.2-1.2-1.2-1.2-2.4-1.2-25.2 3.6-48.6 3.6-6.6 0-18.6 1.8t-17.4 1.8q-9.6 0-12.6-10.8-5.4 0-5.4 9.6l1.8 8.4q2.4 31.8-7.2 56.4-6.6 7.8-9 7.8-1.8 0-3.6 3h-12.6q-18-18-18-36zm52.2-128.4q0 2.4 1.8 9.6t1.8 10.2q0 19.2 4.8 25.2 4.2 5.4 16.8 5.4l83.4 1.8 28.8 1.8 26.4-1.8h76.8q10.8-1.2 12-19.8 0.6-16.8 2.4-16.2l-2.4-14.4q-0.6-4.8 0.6-13.8 1.8-10.2 1.8-13.8v-33.6l1.2-3.6q1.2 0 3.6 10.8 1.8 10.8 7.2 10.8 3.6 0 8.4-4.2 4.8-4.8 4.8-9 0-9-4.8-13.2t-4.8-7.8v-1.8q-1.2 1.2-8.4 3.6-3.6 1.8-3.6 7.2l-3.6-3.6q0-2.4 1.2-6 0-3.6-1.8-25.2t-1.8-25.2q0-11.4 1.2-40.2 1.2-28.2 1.2-36 0-18-18-18-5.4 0-15 1.8t-13.8 1.8q-31.2 2.4-92.4 2.4-4.8 0-15 1.8-9.6 1.8-13.8 1.8l-34.8 1.2-5.4-1.2q-16.2 0-34.2 12-12.6 9.6-12.6 40.2 0 7.8 1.2 16.8l0.6 12-1.8 27.6q0 7.8 1.8 12l-1.8 13.2v7.8q-0.6 7.2 1.8 13.8l-1.8 25.2 1.8 4.8q-0.6 23.4-1.8 25.8zm-9-193.2q-1.2 0-1.2 1.8t1.2 1.8 1.2-1.8-1.2-1.8zm322.8 106.2q-1.2 0-1.2 2.4 0 1.2 1.2 1.2t1.2-1.2q0-2.4-1.2-2.4zm-18 64.8q0-0.6-0.6-0.6t-0.6 0.6q0 1.8 0.6 1.8t0.6-1.8zm-322.8-58.8h1.8l-1.8-2.4v2.4z"/>
		</g>
	</g>
</svg>
